<svg id="Layer_1" data-name="Layer 1" xmlns="http://www.w3.org/2000/svg" viewBox="0 0 800 400"><defs><style>.cls-1{fill:#f7901e;}</style></defs><title>react-wpgraphql-logo</title><path d="M126,177.24l-12.25-43.16h-7.15v43.16H91.15V75.16h22.31c16.63,0,25.67,9,25.67,25.81v7.3c0,10.79-3.79,18.37-10.94,22.45l14.15,46.52Zm-19.4-87.79v30.34h6.27c7.44,0,10.79-3.94,10.79-12.55V102c0-8.61-3.35-12.55-10.79-12.55Z"/><path d="M197,89.45H169v28.88h22.6v14.29H169V163h28v14.29H153.57V75.16H197Z"/><path d="M259.58,177.24H243.84l-3.36-23.18H223.42l-3.35,23.18H204.61L222.25,75.16h19.69ZM231.73,97l-6.27,43h13l-6.27-43Z"/><path d="M316.17,98.2v9.19l-14.88.73V99.81c0-8.17-3.06-11.81-8.75-11.81s-8.75,3.64-8.75,10.35v55.71c0,6.7,3.07,10.35,8.75,10.35s8.75-3.65,8.75-11.81V141.22l14.88.73V154.2c0,15.46-8.9,24.5-24.06,24.5s-23.77-9-23.77-24.5v-56c0-15.45,8.75-24.5,23.77-24.5S316.17,82.75,316.17,98.2Z"/><path d="M371,89.75H354.52v87.49H339.07V89.75H322.59V75.16H371Z"/><path class="cls-1" d="M244.67,318.86H229.43L221,260h-.28l-8.61,58.83H196.84l-15.23-98.75H197l8.61,65.46h.28l8.47-65.46H227.6l8.46,65.46h.29l8.6-65.46h15Z"/><path class="cls-1" d="M317,245.08V253c0,16.22-8.74,25-24.83,25h-6.63v40.91H270.63V220.11h21.58C308.3,220.11,317,228.85,317,245.08Zm-31.46-11.15v30.19h6.07c7.19,0,10.44-3.81,10.44-12.13v-5.93c0-8.32-3.25-12.13-10.44-12.13Z"/><path class="cls-1" d="M396.61,242.4v6.77l-14.39.7V244c0-7.9-3-11.43-8.74-11.43s-8.75,3.53-8.75,10v53.89c0,6.49,2.82,10,8.61,10s8.6-3.53,8.6-11.43V278.09h-8.46V264.26h23.13v32.31c0,15-8.6,23.7-23.56,23.7s-23.27-8.74-23.27-23.7V242.4c0-15,8.46-23.71,23.27-23.71S396.61,227.44,396.61,242.4Z"/><path class="cls-1" d="M444.44,318.86,432.59,277.1h-6.91v41.76h-15V220.11h21.59c16.08,0,24.83,8.74,24.83,25v7c0,10.44-3.67,17.78-10.58,21.73l13.68,45Zm-18.76-84.93v29.35h6.06c7.2,0,10.44-3.81,10.44-12.14v-5.08c0-8.32-3.24-12.13-10.44-12.13Z"/><path class="cls-1" d="M518.93,318.86H503.7l-3.25-22.43H483.94l-3.24,22.43h-15l17.08-98.75h19ZM492,241.27l-6.07,41.62h12.56l-6.07-41.62Z"/><path class="cls-1" d="M576.07,245.08V253c0,16.22-8.75,25-24.83,25h-6.63v40.91h-15V220.11h21.59C567.32,220.11,576.07,228.85,576.07,245.08Zm-31.46-11.15v30.19h6.07c7.19,0,10.44-3.81,10.44-12.13v-5.93c0-8.32-3.25-12.13-10.44-12.13Z"/><path class="cls-1" d="M634.76,318.86h-15v-43H602v43H587.08V220.11H602v41.61h17.78V220.11h15Z"/><path class="cls-1" d="M697.54,243.67V295.3c0,6.07-1.41,11.29-4.09,15.38,1.69,1.83,4.38,2.4,7.62,2.4l-1.41,13.83c-7.34,0-13-2.4-16.51-8.19a29.9,29.9,0,0,1-9.73,1.55c-15,0-24.13-9.45-24.13-25V243.67c0-15.52,9.17-25,24.13-25S697.54,228.15,697.54,243.67Zm-33.29.14v51.35c0,7.34,3.24,11.29,9.17,11.29s9.17-3.95,9.17-11.29V243.81c0-7.34-3.25-11.29-9.17-11.29S664.25,236.47,664.25,243.81Z"/><path class="cls-1" d="M727,304.75h25v14.11H712.07V220.11h15Z"/></svg>